<?xml version="1.0" encoding="iso-8859-1"?>
<!-- Generator: Adobe Illustrator 17.1.0, SVG Export Plug-In . SVG Version: 6.00 Build 0)  -->
<!DOCTYPE svg PUBLIC "-//W3C//DTD SVG 1.1//EN" "http://www.w3.org/Graphics/SVG/1.1/DTD/svg11.dtd">
<svg version="1.1" id="Capa_1" xmlns="http://www.w3.org/2000/svg" xmlns:xlink="http://www.w3.org/1999/xlink" x="0px" y="0px"
	 viewBox="0 0 247 247" style="enable-background:new 0 0 247 247;" xml:space="preserve">
<path d="M177.47,0H69.53C56.956,0,46.726,10.229,46.726,22.804v6.363v174.666v20.363C46.726,236.771,56.956,247,69.53,247h107.94
	c12.574,0,22.804-10.229,22.804-22.804v-20.363V29.167v-6.363C200.274,10.229,190.044,0,177.47,0z M116.75,11.5h13.5
	c4.142,0,7.5,3.357,7.5,7.5s-3.358,7.5-7.5,7.5h-13.5c-4.142,0-7.5-3.357-7.5-7.5S112.608,11.5,116.75,11.5z M123.5,233
	c-6.259,0-11.333-5.074-11.333-11.333c0-6.259,5.074-11.333,11.333-11.333s11.333,5.074,11.333,11.333
	C134.833,227.926,129.759,233,123.5,233z M185.274,196.333H61.726V36.667h123.548V196.333z M167.286,88.202
	c-0.412-2.959-2.541-5.392-5.419-6.192L125.51,71.898c-1.315-0.365-2.704-0.365-4.02,0L85.133,82.01
	c-2.878,0.801-5.007,3.233-5.419,6.192c-0.553,3.981-5.029,39.44,8.082,58.379c13.299,19.209,33.106,24.177,33.943,24.379
	c0.579,0.14,1.169,0.21,1.761,0.21s1.182-0.07,1.761-0.21c0.837-0.202,20.644-5.17,33.943-24.379
	C172.314,127.643,167.839,92.184,167.286,88.202z M150.158,140.304c-10.69,15.441-26.702,19.308-26.702,19.308v-38.215H90.457
	c-1.916-14.343,0.132-29.075,0.132-29.075l32.867-9.141v38.215h32.999C155.523,128.371,153.655,135.253,150.158,140.304z"/>
<g>
</g>
<g>
</g>
<g>
</g>
<g>
</g>
<g>
</g>
<g>
</g>
<g>
</g>
<g>
</g>
<g>
</g>
<g>
</g>
<g>
</g>
<g>
</g>
<g>
</g>
<g>
</g>
<g>
</g>
</svg>
