<?xml version="1.0" encoding="iso-8859-1"?>
<!-- Generator: Adobe Illustrator 17.1.0, SVG Export Plug-In . SVG Version: 6.00 Build 0)  -->
<!DOCTYPE svg PUBLIC "-//W3C//DTD SVG 1.1//EN" "http://www.w3.org/Graphics/SVG/1.1/DTD/svg11.dtd">
<svg version="1.1" id="Capa_1" xmlns="http://www.w3.org/2000/svg" xmlns:xlink="http://www.w3.org/1999/xlink" x="0px" y="0px"
	 viewBox="0 0 259.738 259.738" style="enable-background:new 0 0 259.738 259.738;" xml:space="preserve">
<path d="M202.091,94.673c-2.587,0-5.182,0.179-7.763,0.532C181.2,67.791,153.02,49.77,122.32,49.77
	c-40.42,0-73.821,29.776-79.058,69.045C19.199,120.039,0,140,0,164.362c0,25.147,20.459,45.606,45.606,45.606h156.484
	c31.787,0,57.647-25.86,57.647-57.647S233.878,94.673,202.091,94.673z M165.019,165.13c-13.078,18.894-32.565,23.781-33.389,23.979
	c-0.578,0.14-1.17,0.21-1.761,0.21s-1.183-0.07-1.761-0.21c-0.823-0.198-20.31-5.086-33.39-23.979
	c-12.896-18.627-8.499-53.474-7.955-57.386c0.411-2.959,2.54-5.392,5.419-6.192l35.677-9.922c1.314-0.365,2.705-0.365,4.02,0
	l35.676,9.922c2.879,0.801,5.008,3.233,5.419,6.192C173.518,111.657,177.915,146.503,165.019,165.13z M158.132,140.338h-28.306
	v-33.686l0.043-0.012l28.771,8.002C159.204,121.351,159.46,131.267,158.132,140.338z M129.826,173.949
	c-4.275-1.519-15.091-6.258-22.775-17.358c-2.847-4.112-4.517-9.979-5.433-16.253h28.208V173.949z"/>
<g>
</g>
<g>
</g>
<g>
</g>
<g>
</g>
<g>
</g>
<g>
</g>
<g>
</g>
<g>
</g>
<g>
</g>
<g>
</g>
<g>
</g>
<g>
</g>
<g>
</g>
<g>
</g>
<g>
</g>
</svg>
